# xmcd
#
# Track frame offsets: 
#        178
#        19829
#        32740
#        59720
#        68658
#        85802
#        94990
#        113212
#        118288
#        135323
#        154941
#        176761
#
# Disc length: 2472 seconds
#
# Revision: 2
# Processed by: cddbd v1.5.2PL0 Copyright (c) Steve Scherf et al.
# Submitted via: ExactAudioCopy v0.99pb5
#
DISCID=a609a60c
DTITLE=Torngat - You Could Be
DYEAR=2007
DGENRE=Post Rock, Folk Rock
TTITLE0=You Could Be
TTITLE1=Bordeaux Boredom
TTITLE2=Minute By Minute
TTITLE3=Many faces, Many places
TTITLE4=Mouton Noir
TTITLE5=Gemini One
TTITLE6=Suite a) Steps to a Lively Dance
TTITLE7=Suite b) Chorale
TTITLE8=Suite c) L'Ocean, La Nuit
TTITLE9=A Super Hero Anthem
TTITLE10=Celebrating New
TTITLE11=Hammond Song: Being a Torngat
EXTD=YEAR: 2007
EXTT0=
EXTT1=
EXTT2=
EXTT3=
EXTT4=
EXTT5=
EXTT6=
EXTT7=
EXTT8=
EXTT9=
EXTT10=
EXTT11=
PLAYORDER=
